Coordinates
version=1
nRows=11
nColumns=40
inDegrees=yes

Units are S.I. units (second, meters, Newtons, ...)
If the header above contains a line with 'inDegrees', this indicates whether rotational values are in degrees (yes) or radians (no).

endheader
time	pelvis_tilt	pelvis_list	pelvis_rotation	pelvis_tx	pelvis_ty	pelvis_tz	hip_flexion_r	hip_adduction_r	hip_rotation_r	knee_angle_r	knee_angle_r_beta	ankle_angle_r	subtalar_angle_r	mtp_angle_r	hip_flexion_l	hip_adduction_l	hip_rotation_l	knee_angle_l	knee_angle_l_beta	ankle_angle_l	subtalar_angle_l	mtp_angle_l	lumbar_extension	lumbar_bending	lumbar_rotation	arm_flex_r	arm_add_r	arm_rot_r	elbow_flex_r	pro_sup_r	wrist_flex_r	wrist_dev_r	arm_flex_l	arm_add_l	arm_rot_l	elbow_flex_l	pro_sup_l	wrist_flex_l	wrist_dev_l
      4.00000000	      7.12442422	      4.76953515	      5.76423944	      0.05460884	      1.32165679	     -0.00451619	     45.26567718	    -17.82161790	     -9.54703211	     57.18041780	      0.99798656	    -15.47866151	    -17.07616812	      0.00000000	     34.18950151	     -9.36000706	     -7.12215338	     86.86641194	      1.51610490	    -10.12753989	     -1.51960659	      0.00000000	    -62.00140533	     -0.99644921	     -4.35913610	     50.84794389	     11.04180779	    -54.08390326	     42.97761833	     77.97955422	      0.00000000	      0.00000000	     63.59297528	     16.21785812	    -65.64318400	     46.03232751	     65.13869521	      0.00000000	      0.00000000
      4.01700000	      6.99813736	      6.21367336	      6.22623553	      0.05381576	      1.32160991	     -0.00376686	     40.50781035	    -18.38436419	    -10.70538769	     50.72121045	      0.88525212	    -17.55235676	    -16.20789976	      0.00000000	     37.94325336	     -8.55559323	     -6.75223130	     92.92154243	      1.62178686	     -9.46100989	     -2.02400996	      0.00000000	    -61.82495016	     -2.02161506	     -5.68165432	     50.29169219	     10.92124824	    -54.45914692	     43.18759229	     77.72743082	      0.00000000	      0.00000000	     63.63738915	     16.64540601	    -65.26446211	     46.14409489	     65.13829040	      0.00000000	      0.00000000
      4.03300000	      6.95919189	      6.85617171	      7.70367000	      0.05296638	      1.32149797	     -0.00440943	     34.76148040	    -18.95514690	    -14.15523999	     44.55187936	      0.77757698	    -18.84707086	    -15.36980737	      0.00000000	     42.38697910	     -7.77102608	     -5.29017604	     98.54055261	      1.71985709	     -9.34658736	     -3.18639099	      0.00000000	    -61.64885279	     -1.72311396	     -6.81745190	     49.82593163	     10.67622890	    -54.71177073	     43.18322710	     77.53660145	      0.00000000	      0.00000000	     63.60710944	     17.04350308	    -64.78636129	     46.28078356	     65.30376398	      0.00000000	      0.00000000
      4.05000000	      6.48008310	      7.92606274	      8.14470436	      0.05232821	      1.32053840	     -0.00393462	     30.64940416	    -19.21137954	    -15.64622926	     39.63005301	      0.69167491	    -21.04558467	    -14.45238412	      0.00000000	     46.70975101	     -7.16388199	     -5.22324141	    102.73758639	      1.79310915	     -8.38217787	     -3.81108977	      0.00000000	    -61.19489797	     -2.54366584	     -7.83145154	     49.35804431	     10.46960021	    -54.88637317	     43.25214964	     77.38420466	      0.00000000	      0.00000000	     63.57093331	     17.42019263	    -64.31122348	     46.28604542	     65.38549938	      0.00000000	      0.00000000
      4.06700000	      6.12433522	      8.54149219	      9.07153165	      0.05191881	      1.31990468	     -0.00408349	     26.65874115	    -19.49658098	    -18.09541965	     36.04867111	      0.62916800	    -23.05523271	    -14.57331410	      0.00000000	     50.98163957	     -6.32734465	     -4.75914536	    105.49175971	      1.84117854	     -7.22583580	     -4.70885678	      0.00000000	    -60.96096959	     -2.51343591	     -8.69744226	     49.05997330	     10.06994968	    -54.80745193	     43.10745789	     77.19830740	      0.00000000	      0.00000000	     63.39865785	     17.73881301	    -63.64186821	     46.36786533	     65.50261177	      0.00000000	      0.00000000
      4.08300000	      5.72462256	      9.22739968	      9.66146964	      0.05167680	      1.31932004	     -0.00405544	     23.40946067	    -19.76818078	    -19.69179828	     33.86597654	      0.59107280	    -24.81535448	    -15.09516294	      0.00000000	     54.99085323	     -5.45491175	     -4.80685851	    106.88088304	      1.86542332	     -5.69881658	     -5.48524895	      0.00000000	    -60.80809567	     -2.68283187	     -9.47843370	     48.88677932	      9.68649856	    -54.60154720	     42.92121880	     76.87790349	      0.00000000	      0.00000000	     63.26262117	     18.03085410	    -63.03128769	     46.36486555	     65.54732107	      0.00000000	      0.00000000
      4.10000000	      5.33920120	      9.76886325	      9.73391040	      0.05180824	      1.31868027	     -0.00356188	     21.22687346	    -19.87491718	    -20.44885372	     33.25627514	      0.58043150	    -25.94480991	    -15.66514067	      0.00000000	     58.29231050	     -5.02382810	     -5.26479129	    106.93017274	      1.86628358	     -4.17443746	     -6.00941429	      0.00000000	    -60.68660114	     -3.08838577	     -9.92523624	     48.86551752	      9.35361499	    -54.46617718	     42.68908219	     76.51153685	      0.00000000	      0.00000000	     63.18954052	     18.27723024	    -62.67282109	     46.34501000	     65.47599977	      0.00000000	      0.00000000
      4.11700000	      5.05538066	     10.23495509	      9.45441439	      0.05237394	      1.31820851	     -0.00278075	     19.96937778	    -19.99408804	    -20.36517178	     34.34483062	      0.59943038	    -25.96453898	    -16.12381802	      0.00000000	     60.72471894	     -4.82438686	     -5.96391270	    105.55343135	      1.84225491	     -2.73234075	     -6.10423579	      0.00000000	    -60.72609402	     -3.54517744	    -10.21246580	     49.06021548	      9.12014802	    -54.41893530	     42.45533549	     76.26788679	      0.00000000	      0.00000000	     63.27594667	     18.43310716	    -62.70100861	     46.27931673	     65.37104132	      0.00000000	      0.00000000
      4.13300000	      4.80535930	     10.67773606	      8.99100469	      0.05316229	      1.31797243	     -0.00185214	     19.62007124	    -20.22509815	    -19.52296851	     37.09354082	      0.64740442	    -25.18762461	    -17.01434459	      0.00000000	     62.36557102	     -4.65621589	     -6.80223448	    102.78426173	      1.79392379	     -1.77257298	     -6.01428093	      0.00000000	    -60.85959238	     -4.03015551	    -10.41424569	     49.41215095	      8.91052118	    -54.47811250	     42.15150929	     76.18966435	      0.00000000	      0.00000000	     63.49396062	     18.57239168	    -63.04410490	     46.22938251	     65.33096419	      0.00000000	      0.00000000
      4.15000000	      4.79334907	     10.58959663	      8.36524137	      0.05384571	      1.31812442	     -0.00120635	     20.01129559	    -20.11132850	    -18.42238241	     41.17731464	      0.71867972	    -24.01429995	    -17.70113875	      0.00000000	     62.83805942	     -4.79643855	     -7.22249844	     99.04945606	      1.72873913	     -1.17159849	     -5.95687856	      0.00000000	    -61.07579947	     -4.25812227	    -10.10212337	     49.83176720	      8.84748710	    -54.56257215	     41.97582262	     76.14357299	      0.00000000	      0.00000000	     63.74137497	     18.59724865	    -63.39692943	     46.15051699	     65.31653650	      0.00000000	      0.00000000
      4.16700000	      5.07509346	      9.77984294	      7.77412300	      0.05436959	      1.31869880	     -0.00115064	     21.07091710	    -19.47822256	    -17.32154504	     46.74368444	      0.81583120	    -22.41879198	    -18.20765553	      0.00000000	     61.96963308	     -5.16199600	     -6.90826388	     94.22552925	      1.64454572	     -0.74223322	     -5.62374141	      0.00000000	    -61.38113287	     -4.03171796	     -9.17449776	     50.27491370	      8.93834565	    -54.71551673	     41.93805335	     76.07071734	      0.00000000	      0.00000000	     64.02517860	     18.47610316	    -63.64731623	     46.00066700	     65.30976928	      0.00000000	      0.00000000
